<svg width="52" height="61" viewBox="0 0 52 61" fill="none" xmlns="http://www.w3.org/2000/svg">
<path d="M36.6117 18.4487C40.8351 21.4758 46.0119 23.2599 51.5985 23.2599V14.7688C48.48 14.1026 45.7178 12.4661 43.6418 10.1902C40.0867 7.96344 37.525 4.29248 36.7765 0H28.9401V43.0947C28.9223 48.1204 24.8592 52.1849 19.8473 52.1849C16.8936 52.1849 14.2696 50.7719 12.6078 48.5855C9.64075 47.0831 7.60479 43.9979 7.60479 40.4387C7.60479 35.3995 11.6767 31.3172 16.6976 31.3172C17.6599 31.3172 18.5865 31.4692 19.4597 31.7464V23.1615C8.67401 23.3851 0 32.2249 0 43.0991C0 48.5273 2.16071 53.4458 5.66684 57.0407C8.82993 59.1691 12.639 60.4121 16.7332 60.4121C27.7149 60.4121 36.6117 51.4829 36.6117 40.47V18.4532V18.4487Z" fill="black"/>
</svg>
